# xmcd CD database file
#
# Track frame offsets:
#	150
#	14764
#	28916
#	43376
#	57836
#	77065
#	93525
#	107677
#	124445
#	135674
#	149365
#
# Disc length: 2176 seconds
#
# Revision: 0
# Processed by: cddbd v1.5.1PL0 Copyright (c) Steve Scherf et al.
# Submitted via: CDex 1.51
#
DISCID=a4087e0b
DTITLE=Good Bad and Ugly - Tonite
DYEAR=1900
DGENRE=Blues
TTITLE0=Good Rockin' Tonite
TTITLE1=Stray Cat Strut
TTITLE2=Honey Don't
TTITLE3=Aint No Sunshine
TTITLE4=Hideaway
TTITLE5=One After 909
TTITLE6=Get Back
TTITLE7=Big Bad Leroy Brown
TTITLE8=Down South Jukin
TTITLE9=Perpetual Blues Machine
TTITLE10=Tore Down (live)
EXTD=
EXTT0=
EXTT1=
EXTT2=
EXTT3=
EXTT4=
EXTT5=
EXTT6=
EXTT7=
EXTT8=
EXTT9=
EXTT10=
PLAYORDER=
